<svg class="stroke-red-600 h-24"
     viewBox="0 0 634 146"
     fill="none"
     xmlns="http://www.w3.org/2000/svg">
    <path d="M-4 94L21.9556 21.3422H48.3622L30.0339 73L5.55253 142H31.9591L56.4404 73L80.9218 4H107.328L82.847 73L60.0676 137.203H86.4742L109.254 73L132.033 8.79679H158.44L135.66 73L117.856 123.182H144.262L162.067 73L179.871 22.8182H206.278L188.473 73L169.621 126.134H196.028L214.88 73L233.732 19.8663H260.138L241.286 73L222.173 126.872H248.579L267.693 73L286.807 19.1283H313.213L294.1 73L274.593 127.979H301L320.506 73L340.013 18.0214H366.419L346.913 73L329.763 121.337H356.169L373.319 73L390.469 24.6631H416.876L399.726 73L379.434 130.193H405.84L426.132 73L446.424 15.8075H472.831L452.539 73L434.734 123.182H461.141L478.946 73L496.75 22.8182H523.157L505.352 73L492.261 109.898H518.667L531.759 73L544.85 36.1016H571.257L558.165 73L544.812 110.636H571.218L584.572 73L597.925 35.3636H624.332L610.978 73L589.77 132.775H616.177L637.385 73L658.593 13.2246H685L663.792 73"
          stroke-width="8" />
</svg>
